<svg width="275" height="93" viewBox="0 0 275 93" fill="none" xmlns="http://www.w3.org/2000/svg">
<path fill-rule="evenodd" clip-rule="evenodd" d="M14.1314 78.4184C12.0192 78.4184 10.0922 78.0548 8.35374 77.3267C6.612 76.5996 5.12263 75.6128 3.87807 74.3642C2.63675 73.1178 1.67814 71.6691 1.00766 70.0212C0.337172 68.3723 0.000305176 66.6282 0.000305176 64.7856C0.000305176 62.8964 0.349087 61.1209 1.04448 59.4612C1.74205 57.8014 2.70282 56.3581 3.93547 55.1355C5.16488 53.9118 6.63041 52.9412 8.33424 52.2271C10.0381 51.512 11.8957 51.1549 13.9093 51.1549C15.3272 51.1549 16.6563 51.3183 17.8997 51.645C19.1411 51.9718 20.2914 52.4381 21.3464 53.0451C22.4036 53.6488 23.3492 54.3694 24.18 55.2058C25.0119 56.04 25.7159 56.9553 26.2878 57.9486L21.8143 60.3776C20.9684 58.9537 19.8928 57.8804 18.5886 57.1566C17.2834 56.4338 15.7356 56.0714 13.9462 56.0714C12.6778 56.0714 11.5025 56.3051 10.4226 56.7714C9.33943 57.2377 8.39598 57.8642 7.58902 58.653C6.78205 59.4428 6.15381 60.3635 5.7043 61.4141C5.25911 62.468 5.0349 63.5911 5.0349 64.7856C5.0349 66.006 5.25911 67.141 5.7043 68.1938C6.15381 69.2444 6.78205 70.1673 7.58902 70.9571C8.39598 71.7448 9.36109 72.3658 10.4778 72.8203C11.5968 73.2747 12.8142 73.5019 14.1314 73.5019C16.1699 73.5019 17.8662 72.9674 19.2223 71.9006C20.5763 70.8327 21.5024 69.4045 21.9996 67.6182H13.3114V62.7753H27.4436V64.7856C27.4436 66.6238 27.1338 68.368 26.5121 70.019C25.8892 71.6701 25 73.1178 23.8475 74.3588C22.6906 75.5998 21.2922 76.5888 19.6512 77.3191C18.0091 78.0516 16.1699 78.4184 14.1314 78.4184" fill="white"/>
<path fill-rule="evenodd" clip-rule="evenodd" d="M40.9431 73.7988C41.8865 73.7988 42.7574 73.6376 43.5514 73.3098C44.3486 72.9841 45.0299 72.5275 45.604 71.9454C46.1737 71.3622 46.6297 70.686 46.9666 69.9167C47.3002 69.1463 47.466 68.3197 47.466 67.4325C47.466 66.5702 47.3002 65.7533 46.9666 64.9851C46.6297 64.2158 46.1737 63.5428 45.604 62.9726C45.0299 62.4013 44.3486 61.9523 43.5514 61.6267C42.7574 61.2988 41.8865 61.1354 40.9431 61.1354C40.0235 61.1354 39.1591 61.2988 38.351 61.6267C37.5441 61.9523 36.8411 62.3948 36.2464 62.9564C35.6474 63.5147 35.1839 64.1801 34.847 64.9483C34.5101 65.7187 34.3433 66.5474 34.3433 67.4325C34.3433 68.3197 34.5101 69.1528 34.847 69.9351C35.1839 70.7152 35.6474 71.3903 36.2464 71.9627C36.8411 72.534 37.5441 72.9841 38.351 73.3098C39.1591 73.6376 40.0235 73.7988 40.9431 73.7988M40.1231 78.4188C38.8038 78.4188 37.5051 78.1732 36.2269 77.6819C34.9477 77.1907 33.7963 76.4788 32.7781 75.5461C31.7588 74.6135 30.9389 73.4698 30.3161 72.1163C29.6943 70.7649 29.3845 69.2263 29.3845 67.5039C29.3845 65.7576 29.6878 64.2082 30.2987 62.8557C30.9042 61.5043 31.7144 60.3596 32.7229 59.428C33.727 58.4932 34.8827 57.7813 36.1879 57.2901C37.4932 56.801 38.8309 56.5543 40.1968 56.5543C41.6385 56.5543 42.9697 56.8151 44.1861 57.3355C45.4036 57.8559 46.412 58.5668 47.206 59.4659V56.5922H52.2406V78.3798H47.206V75.2843C46.412 76.257 45.3906 77.0241 44.1503 77.5802C42.9058 78.1396 41.5648 78.4188 40.1231 78.4188" fill="white"/>
<mask id="mask0_119_654" style="mask-type:luminance" maskUnits="userSpaceOnUse" x="0" y="0" width="275" height="93">
<path fill-rule="evenodd" clip-rule="evenodd" d="M0 92.25H274.5V0.75H0V92.25Z" fill="white"/>
</mask>
<g mask="url(#mask0_119_654)">
<path fill-rule="evenodd" clip-rule="evenodd" d="M55.1108 78.3803H60.1812V50.8193H55.1108V78.3803Z" fill="white"/>
<path fill-rule="evenodd" clip-rule="evenodd" d="M73.9418 73.7988C74.8853 73.7988 75.7562 73.6376 76.5512 73.3098C77.3473 72.9841 78.0287 72.5275 78.6038 71.9454C79.1725 71.3622 79.6285 70.686 79.9654 69.9167C80.299 69.1463 80.4658 68.3197 80.4658 67.4325C80.4658 66.5702 80.299 65.7533 79.9654 64.9851C79.6285 64.2158 79.1725 63.5428 78.6038 62.9726C78.0287 62.4013 77.3473 61.9523 76.5512 61.6267C75.7562 61.2988 74.8853 61.1354 73.9418 61.1354C73.0222 61.1354 72.1589 61.2988 71.3498 61.6267C70.5428 61.9523 69.8399 62.3948 69.2441 62.9564C68.6462 63.5147 68.1837 64.1801 67.8457 64.9483C67.51 65.7187 67.3421 66.5474 67.3421 67.4325C67.3421 68.3197 67.51 69.1528 67.8457 69.9351C68.1837 70.7152 68.6462 71.3903 69.2441 71.9627C69.8399 72.534 70.5428 72.9841 71.3498 73.3098C72.1589 73.6376 73.0222 73.7988 73.9418 73.7988M73.123 78.4188C71.8026 78.4188 70.5039 78.1732 69.2257 77.6819C67.9465 77.1907 66.7951 76.4788 65.7758 75.5461C64.7576 74.6135 63.9377 73.4698 63.3159 72.1163C62.6931 70.7649 62.3844 69.2263 62.3844 67.5039C62.3844 65.7576 62.6866 64.2082 63.2975 62.8557C63.9041 61.5043 64.7143 60.3596 65.7217 59.428C66.7268 58.4932 67.8826 57.7813 69.1867 57.2901C70.4909 56.801 71.8308 56.5543 73.1956 56.5543C74.6373 56.5543 75.9685 56.8151 77.186 57.3355C78.4024 57.8559 79.4108 58.5668 80.2048 59.4659V56.5922H85.2394V78.3798H80.2048V75.2843C79.4108 76.257 78.3905 77.0241 77.1491 77.5802C75.9046 78.1396 74.5636 78.4188 73.123 78.4188" fill="white"/>
<path fill-rule="evenodd" clip-rule="evenodd" d="M94.6724 67.2805L86.7685 56.5917H92.9187L97.8808 63.5184L102.803 56.5917H108.768L100.935 67.3562L109.29 78.3804H103.135L97.8049 71.1182L92.6209 78.3804H86.4684L94.6724 67.2805Z" fill="white"/>
<path fill-rule="evenodd" clip-rule="evenodd" d="M118.351 77.4378L109.402 56.5915H114.77L120.848 71.4989L126.588 56.5915H131.884L118.872 92.25H113.763L118.351 77.4378Z" fill="white"/>
<path fill-rule="evenodd" clip-rule="evenodd" d="M142.92 51.1926H158.32V56.0334H147.99V62.2904H158.32V67.1322H147.99V78.3804H142.92V51.1926Z" fill="white"/>
<path fill-rule="evenodd" clip-rule="evenodd" d="M161.114 56.5919H166.112V59.8324C167.132 57.6727 168.994 56.5919 171.704 56.5919C172.499 56.5919 173.215 56.6795 173.85 56.8526C174.48 57.0268 175.048 57.2497 175.545 57.5224L173.643 62.2906C173.269 62.0428 172.855 61.8372 172.393 61.6771C171.935 61.5148 171.342 61.4348 170.623 61.4348C169.155 61.4348 168.044 61.8491 167.285 62.6812C166.528 63.5132 166.148 64.8722 166.148 66.7591V78.3806H161.114V56.5919Z" fill="white"/>
<path fill-rule="evenodd" clip-rule="evenodd" d="M177.184 78.3801H182.255V56.5914H177.184V78.3801ZM176.55 51.266C176.55 50.3225 176.835 49.5576 177.41 48.9744C177.979 48.3912 178.75 48.1013 179.721 48.1013C180.712 48.1013 181.49 48.3912 182.051 48.9744C182.609 49.5576 182.888 50.3225 182.888 51.266C182.888 52.2106 182.609 52.9669 182.051 53.5382C181.49 54.1094 180.712 54.394 179.721 54.394C178.702 54.394 177.918 54.1094 177.372 53.5382C176.824 52.9669 176.55 52.2106 176.55 51.266V51.266Z" fill="white"/>
<path fill-rule="evenodd" clip-rule="evenodd" d="M195.788 60.9872C194.275 60.9872 192.96 61.3227 191.855 61.9902C190.748 62.66 189.971 63.5418 189.525 64.6356H201.905C201.532 63.4412 200.811 62.5334 199.741 61.9134C198.674 61.2956 197.354 60.9872 195.788 60.9872M195.977 78.4178C194.262 78.4178 192.694 78.1365 191.276 77.5739C189.861 77.0124 188.648 76.2409 187.642 75.2585C186.637 74.2782 185.853 73.1238 185.292 71.794C184.733 70.4665 184.454 69.048 184.454 67.5408C184.454 66.0098 184.746 64.5719 185.331 63.2313C185.915 61.8918 186.715 60.7309 187.734 59.7495C188.754 58.7682 189.952 57.9903 191.334 57.4157C192.714 56.8423 194.198 56.5534 195.788 56.5534C197.405 56.5534 198.901 56.8163 200.281 57.3411C201.662 57.8637 202.85 58.5972 203.844 59.5396C204.837 60.482 205.613 61.5954 206.175 62.8754C206.733 64.1564 207.012 65.5521 207.012 67.0658V68.8467H189.264C189.613 70.3864 190.368 71.6274 191.537 72.5698C192.705 73.5144 194.186 73.9861 195.977 73.9861C197.394 73.9861 198.622 73.6377 199.666 72.9431C200.71 72.2474 201.493 71.3169 202.014 70.1494L206.153 72.5341C205.21 74.2966 203.887 75.7172 202.184 76.7981C200.48 77.8769 198.413 78.4178 195.977 78.4178" fill="white"/>
<path fill-rule="evenodd" clip-rule="evenodd" d="M209.249 56.5918H214.246V59.5683C214.966 58.6584 215.879 57.9302 216.987 57.3806C218.091 56.8299 219.354 56.554 220.77 56.554C223.48 56.554 225.601 57.3589 227.128 58.9678C228.657 60.5767 229.422 62.8175 229.422 65.6944V78.3805H224.315V66.2625C224.315 64.6125 223.902 63.3087 223.082 62.349C222.264 61.3925 221.031 60.9132 219.393 60.9132C217.949 60.9132 216.738 61.4098 215.754 62.4042C214.775 63.3996 214.282 64.8299 214.282 66.6996V78.3805H209.249V56.5918Z" fill="white"/>
<path fill-rule="evenodd" clip-rule="evenodd" d="M243.179 73.7986C244.123 73.7986 244.994 73.6374 245.789 73.3096C246.585 72.9839 247.266 72.5273 247.84 71.9452C248.411 71.362 248.866 70.6858 249.203 69.9165C249.536 69.1462 249.703 68.3195 249.703 67.4323C249.703 66.57 249.536 65.7531 249.203 64.9849C248.866 64.2156 248.411 63.5426 247.84 62.9724C247.266 62.4012 246.585 61.9521 245.789 61.6265C244.994 61.2986 244.123 61.1353 243.179 61.1353C242.26 61.1353 241.395 61.2986 240.587 61.6265C239.78 61.9521 239.077 62.3947 238.482 62.9562C237.884 63.5145 237.42 64.1799 237.083 64.9481C236.746 65.7185 236.579 66.5473 236.579 67.4323C236.579 68.3195 236.746 69.1526 237.083 69.9349C237.42 70.715 237.884 71.3902 238.482 71.9625C239.077 72.5338 239.78 72.9839 240.587 73.3096C241.395 73.6374 242.26 73.7986 243.179 73.7986M242.359 78.4187C241.039 78.4187 239.741 78.1731 238.463 77.6819C237.183 77.1907 236.034 76.4787 235.013 75.5461C233.995 74.6134 233.175 73.4698 232.552 72.1162C231.931 70.7649 231.621 69.2263 231.621 67.5038C231.621 65.7575 231.924 64.2081 232.535 62.8557C233.14 61.5043 233.951 60.3596 234.959 59.428C235.964 58.4932 237.119 57.7812 238.424 57.29C239.728 56.801 241.067 56.5543 242.433 56.5543C243.85 56.5543 245.167 56.8226 246.387 57.356C247.603 57.8894 248.611 58.6284 249.406 59.5719V50.8198H254.477V78.3798H249.441V75.2842C248.647 76.2569 247.627 77.024 246.387 77.5802C245.142 78.1396 243.801 78.4187 242.359 78.4187" fill="white"/>
<path fill-rule="evenodd" clip-rule="evenodd" d="M265.551 78.4184C263.139 78.4184 261.138 77.9705 259.546 77.0746C257.956 76.1776 256.725 74.8814 255.857 73.1871L260.518 71.0924C261.04 72.0467 261.746 72.7792 262.641 73.292C263.537 73.8038 264.581 74.0602 265.772 74.0602C267.018 74.0602 267.95 73.8114 268.571 73.3147C269.193 72.817 269.502 72.2263 269.502 71.5403C269.502 71.1605 269.36 70.8533 269.075 70.6163C268.789 70.3783 268.416 70.1727 267.955 69.9953C267.494 69.8167 266.954 69.6696 266.336 69.5517C265.712 69.4326 265.066 69.3028 264.396 69.16C263.45 68.9717 262.523 68.7467 261.615 68.4859C260.709 68.2252 259.895 67.8638 259.173 67.4018C258.455 66.9419 257.869 66.349 257.422 65.6284C256.974 64.9046 256.752 64.0001 256.752 62.9127C256.752 62.0828 256.955 61.2832 257.365 60.514C257.778 59.7447 258.354 59.0641 259.1 58.4723C259.846 57.8804 260.745 57.413 261.804 57.0701C262.861 56.7271 264.035 56.554 265.327 56.554C267.514 56.554 269.336 56.9586 270.789 57.7679C272.243 58.5772 273.393 59.6787 274.24 61.0712L269.951 63.0966C269.502 62.3652 268.881 61.7874 268.086 61.3622C267.29 60.9392 266.371 60.726 265.327 60.726C264.135 60.726 263.252 60.9522 262.679 61.4001C262.107 61.8524 261.823 62.3728 261.823 62.9657C261.823 63.6517 262.243 64.1429 263.092 64.4393C263.934 64.7358 265.179 65.0496 266.818 65.3807C267.712 65.5462 268.613 65.7658 269.52 66.0374C270.428 66.3101 271.257 66.6758 272 67.1389C272.747 67.6009 273.35 68.1938 273.808 68.9155C274.27 69.6382 274.501 70.5449 274.501 71.6334C274.501 72.3669 274.325 73.1308 273.977 73.9239C273.629 74.7181 273.089 75.4516 272.355 76.1279C271.62 76.8019 270.695 77.3516 269.579 77.779C268.46 78.2052 267.117 78.4184 265.551 78.4184" fill="white"/>
<mask id="mask1_119_654" style="mask-type:luminance" maskUnits="userSpaceOnUse" x="3" y="30" width="81" height="13">
<path fill-rule="evenodd" clip-rule="evenodd" d="M3.75 30.75H84V42.75H3.75V30.75Z" fill="white"/>
</mask>
<g mask="url(#mask1_119_654)">
<path fill-rule="evenodd" clip-rule="evenodd" d="M79.9419 36.0204V37.6538H81.1177V39.2747C81.1214 39.4196 81.1133 39.5758 81.0877 39.7007C81.0411 40.0029 80.747 40.5178 79.9123 40.5178C79.0826 40.5178 78.7937 40.0029 78.7435 39.7007C78.7226 39.5758 78.7136 39.4196 78.7136 39.2747V34.1555C78.7136 33.9744 78.7261 33.7764 78.7656 33.6264C78.8223 33.3534 79.0701 32.8155 79.9061 32.8155C80.7836 32.8155 81.0027 33.3827 81.0528 33.6264C81.0861 33.7877 81.0877 34.0584 81.0877 34.0584V34.6799H83.9772V34.3125C83.9772 34.3125 83.9901 33.929 83.9551 33.5713C83.738 31.4702 81.9648 30.8054 79.9316 30.8054C77.8948 30.8054 76.1576 31.4764 75.9043 33.5713C75.8816 33.7629 75.8466 34.1075 75.8466 34.3125V39.0215C75.8466 39.2267 75.8534 39.3853 75.8924 39.7603C76.0808 41.8036 77.8948 42.5277 79.9235 42.5277C81.9648 42.5277 83.7661 41.8036 83.9579 39.7603C83.992 39.3853 83.9955 39.2267 84.0001 39.0215V36.0204H79.9419ZM60.0201 31.1068H57.1186V39.3929C57.1231 39.5372 57.1186 39.6995 57.0931 39.8185C57.0325 40.0966 56.7911 40.6319 55.9906 40.6319C55.2004 40.6319 54.9526 40.0966 54.8967 39.8185C54.8676 39.6995 54.8641 39.5372 54.8676 39.3929V31.1068H51.967V39.1357C51.9634 39.3427 51.98 39.7655 51.9925 39.8763C52.1929 41.9683 53.8817 42.6476 55.9906 42.6476C58.1037 42.6476 59.7916 41.9683 59.9955 39.8763C60.0115 39.7655 60.0326 39.3427 60.0201 39.1357V31.1068ZM33.3608 31.1068L31.9135 39.8622L30.467 31.1068H25.7866L25.5385 42.3075H28.4059L28.4834 31.9387L30.4562 42.3075H33.3654L35.34 31.9387L35.4179 42.3075H38.2924L38.0358 31.1068H33.3608ZM16.0322 31.1068L13.9071 42.3075H17.0061L18.6076 31.9387L20.1705 42.3075H23.2479L21.1318 31.1068H16.0322ZM70.1602 40.1247L67.4585 31.1068H63.201V42.1905H66.0174L65.8539 32.8842L68.7554 42.1905H72.8385V31.1068H70.0037L70.1602 40.1247ZM44.1097 34.0217C44.0587 33.8004 44.0734 33.5655 44.0998 33.4427C44.1818 33.084 44.4286 32.6931 45.1395 32.6931C45.8021 32.6931 46.1906 33.0962 46.1906 33.7016V34.3864H49.019V33.6058C49.019 31.1924 46.8028 30.8133 45.1983 30.8133C43.1775 30.8133 41.5271 31.4637 41.2257 33.2794C41.146 33.7737 41.1263 34.2124 41.2531 34.7722C41.7445 37.0362 45.782 37.6932 46.368 39.1251C46.4714 39.3964 46.4418 39.7423 46.3889 39.9461C46.3012 40.3187 46.0445 40.6935 45.2834 40.6935C44.5693 40.6935 44.1397 40.2928 44.1397 39.6889L44.1388 38.6138H41.0945V39.4686C41.0945 41.9442 43.0807 42.6914 45.2202 42.6914C47.2692 42.6914 48.9616 42.0078 49.2331 40.1546C49.3625 39.1973 49.2649 38.5737 49.2129 38.3388C48.7385 36.0164 44.4354 35.318 44.1097 34.0217V34.0217ZM6.79923 33.9942C6.7437 33.7685 6.75666 33.5302 6.78759 33.4059C6.86596 33.0491 7.11419 32.6511 7.83764 32.6511C8.50865 32.6511 8.90375 33.0583 8.90375 33.6684V34.3616H11.7653V33.5748C11.7653 31.1383 9.51524 30.7499 7.89318 30.7499C5.8554 30.7499 4.19032 31.4102 3.88568 33.2394C3.8023 33.7413 3.78801 34.1831 3.90851 34.7491C4.40525 37.039 8.48273 37.7012 9.07581 39.1502C9.18688 39.4196 9.15329 39.7655 9.0982 39.9772C9.00407 40.3537 8.74524 40.7337 7.97774 40.7337C7.26106 40.7337 6.83238 40.3261 6.83238 39.714L6.8284 38.6362H3.75V39.4927C3.75 41.9969 5.76436 42.75 7.92043 42.75C9.99313 42.75 11.6955 42.0602 11.9732 40.1857C12.1112 39.2197 12.0076 38.5907 11.9611 38.3524C11.4769 36.0016 7.12583 35.3054 6.79923 33.9942V33.9942Z" fill="white"/>
</g>
</g>
</svg>
